<?xml version="1.0" encoding="UTF-8"?>
<svg viewBox="0 0 793.7113 843.875" xmlns="http://www.w3.org/2000/svg">
 <defs>
  <filter id="b">
   <feGaussianBlur stdDeviation="13.10512"/>
  </filter>
  <filter id="a" x="-.76528" y="-.76528" width="2.5306" height="2.5306">
   <feGaussianBlur stdDeviation="170.36657"/>
  </filter>
 </defs>
 <g transform="translate(3.3438 -97.562)">
  <path d="m-2.8462 98.087h803.35v842.84h-803.35z" stroke="#000" stroke-width="1.0566"/>
  <path transform="translate(-303.71 -191.14)" d="m954.29 708.08c0 147.54-119.6 267.14-267.14 267.14s-267.14-119.6-267.14-267.14 119.6-267.14 267.14-267.14 267.14 119.6 267.14 267.14z" fill="#fff" filter="url(#b)" stroke="#fff"/>
  <path transform="matrix(1.0107 0 0 1.0107 -324.48 -200.42)" d="m954.29 708.08a267.14 267.14 0 1 1 -534.29 0 267.14 267.14 0 1 1 534.29 0z" stroke="#000"/>
  <path transform="matrix(.14287 0 0 .14498 498.4 563.7)" d="m954.29 708.08c0 147.54-119.6 267.14-267.14 267.14s-267.14-119.6-267.14-267.14 119.6-267.14 267.14-267.14 267.14 119.6 267.14 267.14z" fill="#fff" filter="url(#a)" stroke="#000"/>
  <path transform="matrix(.14287 0 0 .14498 498.4 563.7)" d="m954.29 708.08c0 147.54-119.6 267.14-267.14 267.14s-267.14-119.6-267.14-267.14 119.6-267.14 267.14-267.14 267.14 119.6 267.14 267.14z" fill="#fff" filter="url(#a)" stroke="#000"/>
  <path transform="matrix(.14287 0 0 .14498 498.4 563.7)" d="m954.29 708.08c0 147.54-119.6 267.14-267.14 267.14s-267.14-119.6-267.14-267.14 119.6-267.14 267.14-267.14 267.14 119.6 267.14 267.14z" fill="#fff" filter="url(#a)" stroke="#000"/>
  <path transform="matrix(.28229 0 0 .28646 405.42 462.1)" d="m954.29 708.08c0 147.54-119.6 267.14-267.14 267.14s-267.14-119.6-267.14-267.14 119.6-267.14 267.14-267.14 267.14 119.6 267.14 267.14z" fill="#fff" filter="url(#a)" stroke="#000"/>
 </g>
</svg>
